<?xml version="1.0" encoding="utf-8"?>
<svg viewBox="0 0 512 512" xmlns="http://www.w3.org/2000/svg">
  <path d="M 470.007 392.202 C 457.282 392.202 447.104 388.462 439.466 380.989 C 431.83 373.513 428.015 363.413 428.015 350.687 C 428.015 337.643 431.83 327.226 439.466 319.431 C 447.104 311.635 457.282 307.74 470.007 307.74 C 483.052 307.74 493.31 311.635 500.787 319.431 C 508.263 327.226 512 337.643 512 350.687 C 512 363.413 508.263 373.513 500.787 380.989 C 493.31 388.462 483.052 392.202 470.007 392.202 Z" style="fill: rgb(236, 28, 36); white-space: pre;"/>
  <path d="M 88.326 391.941 C 60.953 391.941 39.388 384.859 23.633 370.695 C 7.878 356.53 0 337.196 0 312.686 C 0 287.859 8.356 268.364 25.067 254.201 C 41.778 240.036 64.773 232.954 94.057 232.954 L 167.105 232.954 L 167.105 208.603 C 167.105 194.28 162.649 183.138 153.737 175.183 C 144.823 167.225 132.253 163.248 116.02 163.248 C 101.695 163.248 89.76 166.349 80.21 172.557 C 70.661 178.763 65.091 186.959 63.5 197.146 L 12.891 197.146 C 15.755 173.592 26.658 154.812 45.596 140.808 C 64.535 126.801 88.486 119.799 117.45 119.799 C 148.643 119.799 173.312 127.677 191.456 143.432 C 209.597 159.188 218.668 180.594 218.668 207.649 L 218.668 387.167 L 168.538 387.167 L 168.538 338.945 L 159.943 338.945 L 168.538 329.396 C 168.538 348.493 161.216 363.693 146.574 374.993 C 131.932 386.293 112.517 391.941 88.326 391.941 Z M 103.604 352.314 C 122.066 352.314 137.266 347.62 149.201 338.228 C 161.136 328.84 167.105 316.824 167.105 302.183 L 167.105 267.807 L 95.011 267.807 C 81.643 267.807 71.059 271.466 63.262 278.788 C 55.463 286.109 51.564 296.134 51.564 308.867 C 51.564 322.235 56.179 332.817 65.411 340.616 C 74.64 348.415 87.372 352.314 103.604 352.314 Z" style="white-space: pre; fill: rgb(255, 255, 255);"/>
</svg>