<?xml version="1.0" encoding="utf-8"?>
<svg viewBox="0 0 512 512" xmlns="http://www.w3.org/2000/svg">
    <style>
        .ara { fill:  rgb(0, 0, 0); }
        @media (prefers-color-scheme: dark) {
            .ara { fill: rgb(255, 255, 255); }
        }
    </style>
    <path class="ara" d="M 91.235 298.728 C 82.64 298.728 75.868 296.504 70.921 292.056 C 65.974 287.609 63.5 281.537 63.5 273.841 C 63.5 266.045 66.124 259.923 71.371 255.476 C 76.618 251.028 83.839 248.804 93.034 248.804 L 115.972 248.804 L 115.972 241.158 C 115.972 236.661 114.573 233.162 111.774 230.664 C 108.976 228.165 105.028 226.916 99.931 226.916 C 95.433 226.916 91.685 227.89 88.687 229.839 C 85.688 231.788 83.939 234.362 83.439 237.56 L 67.548 237.56 C 68.447 230.164 71.871 224.267 77.817 219.87 C 83.764 215.472 91.285 213.273 100.38 213.273 C 110.175 213.273 117.921 215.747 123.618 220.694 C 129.315 225.641 132.164 232.363 132.164 240.858 L 132.164 297.229 L 116.422 297.229 L 116.422 282.087 L 113.723 282.087 L 116.422 279.088 C 116.422 285.085 114.123 289.857 109.526 293.406 C 104.928 296.954 98.831 298.728 91.235 298.728 Z M 96.033 286.284 C 101.83 286.284 106.602 284.81 110.35 281.862 C 114.098 278.913 115.972 275.14 115.972 270.543 L 115.972 259.748 L 93.334 259.748 C 89.136 259.748 85.813 260.898 83.364 263.197 C 80.916 265.495 79.691 268.644 79.691 272.642 C 79.691 276.839 81.141 280.163 84.039 282.611 C 86.938 285.06 90.935 286.284 96.033 286.284 Z M 181.735 297.229 L 181.735 214.772 L 197.327 214.772 L 197.327 230.514 L 201.225 230.514 L 196.278 240.259 C 196.278 231.363 198.227 224.642 202.125 220.094 C 206.022 215.547 211.819 213.273 219.515 213.273 C 228.311 213.273 235.282 215.997 240.429 221.444 C 245.577 226.891 248.15 234.362 248.15 243.857 L 248.15 249.404 L 231.509 249.404 L 231.509 245.206 C 231.509 239.309 230.035 234.787 227.086 231.638 C 224.138 228.49 220.015 226.916 214.718 226.916 C 209.421 226.916 205.298 228.515 202.349 231.713 C 199.401 234.912 197.927 239.409 197.927 245.206 L 197.927 297.229 L 181.735 297.229 Z M 315.112 298.728 C 306.516 298.728 299.745 296.504 294.797 292.056 C 289.85 287.609 287.376 281.537 287.376 273.841 C 287.376 266.045 290 259.923 295.247 255.476 C 300.494 251.028 307.716 248.804 316.911 248.804 L 339.849 248.804 L 339.849 241.158 C 339.849 236.661 338.449 233.162 335.651 230.664 C 332.852 228.165 328.904 226.916 323.807 226.916 C 319.309 226.916 315.561 227.89 312.563 229.839 C 309.565 231.788 307.816 234.362 307.316 237.56 L 291.424 237.56 C 292.324 230.164 295.747 224.267 301.694 219.87 C 307.641 215.472 315.162 213.273 324.257 213.273 C 334.052 213.273 341.798 215.747 347.495 220.694 C 353.192 225.641 356.04 232.363 356.04 240.858 L 356.04 297.229 L 340.298 297.229 L 340.298 282.087 L 337.6 282.087 L 340.298 279.088 C 340.298 285.085 338 289.857 333.402 293.406 C 328.804 296.954 322.708 298.728 315.112 298.728 Z M 319.909 286.284 C 325.706 286.284 330.479 284.81 334.227 281.862 C 337.975 278.913 339.849 275.14 339.849 270.543 L 339.849 259.748 L 317.211 259.748 C 313.013 259.748 309.69 260.898 307.241 263.197 C 304.792 265.495 303.568 268.644 303.568 272.642 C 303.568 276.839 305.017 280.163 307.916 282.611 C 310.814 285.06 314.812 286.284 319.909 286.284 Z"/>
    <path d="M 435.307 298.728 C 431.309 298.728 428.111 297.553 425.712 295.205 C 423.313 292.856 422.114 289.683 422.114 285.685 C 422.114 281.587 423.313 278.314 425.712 275.865 C 428.111 273.416 431.309 272.192 435.307 272.192 C 439.405 272.192 442.628 273.416 444.977 275.865 C 447.326 278.314 448.5 281.587 448.5 285.685 C 448.5 289.683 447.326 292.856 444.977 295.205 C 442.628 297.553 439.405 298.728 435.307 298.728 Z" style="fill: rgb(236, 28, 36);"/>
</svg>
